<?xml version="1.0" encoding="utf-8"?><svg viewBox="0 0 512 512" xmlns="http://www.w3.org/2000/svg" xmlns:xlink="http://www.w3.org/1999/xlink"><style>:root>svg{display:none}:root>svg:target{display:block}</style><svg viewBox="0 0 60 24" id="icon-car" xmlns="http://www.w3.org/2000/svg"><path d="M25 8.999h4v2h-4v-2z"/><path d="M59.142 6.01l-6.793-.97A34.273 34.273 0 0048.499 3a33.678 33.678 0 00-13.931-3h-1.18a33.994 33.994 0 00-16.231 4.139l-3.428 1.87A23.63 23.63 0 002.294 9.108 4.565 4.565 0 000 13.061v5.937a1 1 0 001 1h3.358a5.978 5.978 0 0011.283 0h26.717a5.978 5.978 0 0011.283 0H54c.127 0 .253-.024.372-.071l3.239-1.3A3.781 3.781 0 0060 15.1v-8.1a1 1 0 00-.858-.99zM13.919 18.797a4 4 0 11-7.838-1.602 4 4 0 017.838 1.602zm18.08-.8H16a6 6 0 10-12 0H2v-4.937a2.558 2.558 0 011.288-2.217A21.622 21.622 0 0114 8h18v10zM32 6H17.923l.193-.106A31.977 31.977 0 0132 2.044V6zm2-4h.567c4.03-.005 8.023.76 11.766 2.254L44.586 6H34V2zm17.92 16.798a4 4 0 11-7.838-1.602 4 4 0 017.838 1.602zM58 9h-3v2h3v4.1a1.79 1.79 0 01-1.132 1.67L54 17.921c0-.092-.012-.183-.018-.275-.006-.092-.008-.2-.018-.3-.01-.1-.03-.2-.046-.3-.016-.1-.028-.2-.048-.29-.02-.092-.05-.193-.075-.288-.026-.095-.046-.19-.076-.284-.03-.093-.066-.182-.1-.273-.034-.09-.065-.184-.1-.275-.035-.09-.082-.172-.124-.257-.042-.085-.083-.178-.13-.264-.047-.085-.1-.159-.145-.239-.045-.08-.1-.17-.157-.252-.057-.083-.11-.147-.165-.222-.055-.073-.117-.16-.181-.237-.064-.077-.124-.138-.186-.2-.062-.063-.131-.148-.2-.218-.07-.07-.137-.126-.206-.188-.069-.061-.143-.135-.22-.2-.075-.064-.152-.114-.228-.171-.076-.057-.152-.118-.232-.172-.08-.053-.17-.1-.256-.155a2.921 2.921 0 00-.237-.143c-.08-.043-.182-.089-.274-.133-.092-.044-.164-.083-.249-.118-.085-.037-.2-.074-.3-.11-.1-.036-.165-.064-.25-.091-.114-.035-.23-.06-.347-.09-.076-.017-.149-.041-.226-.057-.123-.025-.249-.04-.374-.058-.074-.01-.145-.026-.219-.033a6.005 6.005 0 00-6.61 5.969H34V8h11c.265 0 .52-.105.707-.293L48.3 5.113a32.067 32.067 0 013.17 1.734c.118.074.25.122.388.142L58 7.866v1.133z"/></svg><svg viewBox="0 0 36 36" id="icon-card" xmlns="http://www.w3.org/2000/svg"><path d="M20.813 10.684a.703.703 0 100 1.407.703.703 0 000-1.406zM16.549 24.417a.704.704 0 10-.996-.995.704.704 0 00.996.995z"/><path d="M8.1 35.792a.703.703 0 00.991.006l3.41-3.358c.579-.578.755-1.436.5-2.18l.733-.708a2.097 2.097 0 011.464-.591h9.348a6.296 6.296 0 004.414-1.793c.049-.047-.371.447 6.377-7.616 1.001-1.183.851-2.961-.334-3.963a2.82 2.82 0 00-3.946.314l-4.149 4.263a2.826 2.826 0 00-2.186-1.046H16.88a9.075 9.075 0 00-3.521-.703c-3.385 0-6.342 1.562-7.93 4.494a2.1 2.1 0 00-1.88.583L.205 26.848a.703.703 0 000 .991l7.894 7.953zm5.26-15.97a7.68 7.68 0 013.095.645c.09.039.185.059.282.059h7.985a1.41 1.41 0 011.406 1.405c0 .776-.63 1.406-1.406 1.406h-5.737a.703.703 0 100 1.406h5.737a2.815 2.815 0 002.788-3.179c4.013-4.125 4.58-4.704 4.604-4.733a1.411 1.411 0 011.982-.168c.593.501.668 1.39.165 1.985l-6.307 7.537a4.897 4.897 0 01-3.408 1.37h-9.348c-.915 0-1.783.35-2.44.986l-.598.576-5.509-5.507c1.288-2.414 3.704-3.787 6.709-3.787zm-8.815 4.666a.701.701 0 01.871-.1c.107.066 6.121 6.093 6.159 6.143a.706.706 0 01-.065.912l-2.906 2.862-6.91-6.96 2.851-2.857zM10.97 14.902h16.875c1.163 0 2.11-.946 2.11-2.109V2.11A2.111 2.111 0 0027.844 0H10.969C9.806 0 8.86.946 8.86 2.109v10.684c0 1.163.947 2.11 2.11 2.11zm17.578-9.279H10.266V4.218h18.282v1.405zm-.703 7.873H10.969a.704.704 0 01-.703-.703V7.03h18.282v5.764a.704.704 0 01-.703.703zM10.969 1.406h16.876c.387 0 .703.315.703.703v.703H10.266v-.703c0-.388.315-.703.703-.703z"/><path d="M26.438 10.684h-2.812a.703.703 0 000 1.407h2.812a.703.703 0 100-1.406z"/></svg><svg viewBox="0 0 512 512" id="icon-fb" xmlns="http://www.w3.org/2000/svg"><path d="M308.3 508.5c-2.5.1-4.1.3-5.7.3-34.2 0-68.3-.1-102.5.1-4.8 0-6.1-1.3-6.1-6.1.1-79.6.1-159.3.1-238.9V257H139v-85h5.4c15 0 30-.1 45 .1 3.8 0 4.8-1.1 4.8-4.8-.2-22.3-.2-44.7 0-67 .1-15.6 2.6-30.8 9.8-44.9 10.3-19.9 26.6-32.8 47.2-40.8 16.8-6.6 34.5-9 52.3-9.3 29-.4 58-.2 87-.3 2.7 0 4.9-.1 4.9 3.7-.1 27.5-.1 55-.1 82.5 0 .3-.1.6-.5 1.9h-5.5c-18 0-36-.1-54 0-10.4 0-18.8 4.2-24.1 13.3-1.6 2.7-2.6 6.2-2.6 9.4-.3 17 0 34-.2 51 0 4 1.2 5.1 5.1 5.1 25-.2 50-.1 75-.1h7.3c-3.5 28.6-6.9 56.6-10.4 84.9h-77.1v251.8z"/></svg><svg viewBox="0 0 512 512" id="icon-insta" xmlns="http://www.w3.org/2000/svg"><path d="M505 257c0 34.8-.7 69.7.2 104.5 1.5 61.6-37.2 109.2-86.5 130.4-19.8 8.5-40.6 13-62.1 13-67.3.1-134.7 1-202-.3-50.7-1-92.4-22.2-122.3-64-15.7-22-23.2-47-23.2-74.1v-215c0-58.5 28.5-99.4 79.1-126C110.2 14 134.1 9.1 159 9c65.3 0 130.7-.4 196 .2 50.7.4 93 19.8 124.2 60.6 17.4 22.8 25.8 49 25.8 77.8V257zm-459 0v110c0 16.4 3.8 31.8 12.3 45.7 22.3 36.5 56 54.3 97.8 55 67.1 1 134.3.4 201.5.2 16.5 0 32.5-3.4 47.4-10.5 40.6-19.4 63.3-50.3 63.1-96.7-.4-71-.1-142-.1-213 0-20.1-5.7-38.5-17.6-54.7-23-31.1-54.8-46.4-92.8-46.8-67-.8-134-.3-201-.2-14.3 0-28.1 2.9-41.5 7.9-36.8 13.7-71 48.4-69.4 99.5 1.2 34.6.3 69.1.3 103.6z"/><path d="M257.6 363c-64.5 0-116.5-51.4-116.6-115.4-.1-63 52.3-114.6 116.4-114.6 64.3-.1 116.5 51.4 116.6 114.9 0 63.4-52.1 115-116.4 115.1zm0-37c43.9 0 79.5-35.1 79.4-78.3-.1-42.8-35.7-77.8-79.4-77.8-43.9 0-79.7 34.9-79.7 78 .1 43.2 35.8 78.2 79.7 78.1zM387.5 98c13.5 0 24.5 11.5 24.5 25.6-.1 14.1-11.2 25.5-24.7 25.4-13.3-.1-24.2-11.5-24.2-25.3C363 109.6 374 98 387.5 98z"/></svg><svg viewBox="0 0 47 32" id="icon-map" xmlns="http://www.w3.org/2000/svg"><path d="M27.713 6.35a3.992 3.992 0 00-.651-2.198 3.904 3.904 0 00-1.744-1.459c-.711-.3-1.494-.38-2.25-.228a3.873 3.873 0 00-1.994 1.078 3.968 3.968 0 00-1.067 2.022 4.004 4.004 0 00.22 2.284c.294.722.792 1.34 1.433 1.774a3.85 3.85 0 004.91-.487 3.98 3.98 0 001.143-2.787zm-3.89 2.775a2.706 2.706 0 01-1.517-.472 2.767 2.767 0 01-1.003-1.248 2.815 2.815 0 01-.152-1.603 2.788 2.788 0 01.75-1.419c.383-.387.87-.65 1.4-.757.53-.106 1.08-.05 1.58.16.498.21.925.566 1.225 1.022a2.805 2.805 0 01-.346 3.505 2.722 2.722 0 01-1.938.812zM11.173 16.107a2.659 2.659 0 00-1.49.463c-.441.3-.785.726-.987 1.225a2.765 2.765 0 00-.15 1.575 2.74 2.74 0 00.736 1.394c.376.381.855.64 1.376.745.52.104 1.06.05 1.551-.157.49-.206.91-.556 1.205-1.004a2.757 2.757 0 00-.339-3.443 2.673 2.673 0 00-1.902-.798zm0 4.29a1.523 1.523 0 01-.854-.267 1.559 1.559 0 01-.564-.703 1.585 1.585 0 01.338-1.701 1.518 1.518 0 011.678-.336c.28.119.52.319.69.576a1.58 1.58 0 01-.196 1.974c-.29.293-.683.458-1.092.457zM28.185 21.177a2.28 2.28 0 00-1.278.396 2.33 2.33 0 00-.846 1.05 2.369 2.369 0 00.503 2.545c.322.326.732.548 1.179.638.446.09.909.043 1.33-.134a2.31 2.31 0 001.032-.86 2.362 2.362 0 00-.29-2.951 2.29 2.29 0 00-1.63-.684zm0 3.51a1.143 1.143 0 01-.641-.2 1.169 1.169 0 01-.423-.528 1.19 1.19 0 01.253-1.277 1.14 1.14 0 011.26-.252c.21.089.39.24.517.432a1.185 1.185 0 01-.147 1.482c-.217.22-.512.343-.82.343zM40.442 13.219c.455-.001.9-.14 1.278-.397a2.33 2.33 0 00.845-1.05 2.37 2.37 0 00-.502-2.545 2.27 2.27 0 00-2.508-.504 2.31 2.31 0 00-1.033.86 2.362 2.362 0 00.29 2.951 2.29 2.29 0 001.63.685zm0-3.51c.228 0 .451.07.64.2.19.13.337.313.424.527a1.19 1.19 0 01-.254 1.277 1.15 1.15 0 01-1.259.252 1.16 1.16 0 01-.518-.432 1.186 1.186 0 01.147-1.482 1.15 1.15 0 01.82-.343z"/><path d="M42.113 15.471l1.512-2.045c.582-.772.871-1.73.816-2.7-.137-2.118-1.845-3.777-3.89-3.777s-3.753 1.66-3.89 3.776c-.03.48.03.963.174 1.422l-9.454.176 1.46-1.975a6.542 6.542 0 001.305-4.316 6.606 6.606 0 00-1.87-4.208 6.124 6.124 0 00-1.989-1.35 6.05 6.05 0 00-4.693 0 6.125 6.125 0 00-1.99 1.35 6.606 6.606 0 00-1.869 4.208c-.097 1.478.365 3.009 1.306 4.315l1.262 1.707-13.435.09a.581.581 0 00-.539.394L.032 31.23a.59.59 0 00.28.706.567.567 0 00.262.064h45.854a.567.567 0 00.462-.237.586.586 0 00.085-.519l-4.861-15.773zm-4.308-4.67c.084-1.321 1.135-2.688 2.745-2.688 1.611 0 2.661 1.367 2.746 2.69a2.92 2.92 0 01-.588 1.924l-2.158 2.919-2.153-2.913a2.999 2.999 0 01-.592-1.932zM37.39 13.3l.087.126 2.616 3.539a.575.575 0 00.458.233.566.566 0 00.459-.233l.256-.346.651 2.114-8.887.002-.644-5.342 5.004-.093zM19.962 9.654c-.777-1.08-1.162-2.338-1.082-3.545a5.435 5.435 0 011.537-3.463 4.98 4.98 0 011.617-1.097 4.919 4.919 0 013.814 0 4.98 4.98 0 011.617 1.097 5.436 5.436 0 011.538 3.464 5.368 5.368 0 01-1.08 3.539l-3.982 5.388-3.979-5.383zM1.375 30.836L4.353 22l3.39-.01 3.105 4.2a.575.575 0 00.458.234.566.566 0 00.46-.233l2.473-3.348.03 7.993H1.376zm12.67-9.669l-2.739 3.705-2.734-3.699c-.537-.747-.803-1.614-.749-2.445.108-1.675 1.44-3.407 3.483-3.407 2.044 0 3.376 1.732 3.484 3.408a3.7 3.7 0 01-.745 2.438zm9.034 3.57a.581.581 0 00-.171.415l.003 5.684h-7.495L15.38 21.2c.416-.78.608-1.662.554-2.547-.162-2.52-2.194-4.495-4.627-4.495s-4.465 1.974-4.627 4.494a4.77 4.77 0 00.386 2.177l-2.32.007 2.537-7.53 13.877-.092 2.323 3.143a.576.576 0 00.459.233.566.566 0 00.458-.233l2.11-2.854 4.724-.088.72 5.973c.017.142.084.271.189.366.105.094.24.146.38.146l9.753-.003 1.438 4.667-11.644.02c.102-.4.14-.813.114-1.226-.136-2.117-1.845-3.776-3.89-3.776s-3.754 1.659-3.89 3.775c-.026.414.014.829.119 1.23l-1.033-.016a.55.55 0 00-.411.167zm7.372.622l-2.157 2.919-2.153-2.913a2.999 2.999 0 01-.593-1.932c.085-1.321 1.135-2.688 2.746-2.688 1.61 0 2.66 1.367 2.746 2.69a2.92 2.92 0 01-.589 1.924zm-6.394 5.477l-.002-5.094.965.014c.063.103.129.203.2.301l2.615 3.54a.575.575 0 00.459.232.566.566 0 00.458-.233l2.616-3.538c.074-.1.144-.204.21-.31l12.494-.022 1.575 5.11h-21.59z"/></svg><svg viewBox="0 0 25 25" id="icon-play" xmlns="http://www.w3.org/2000/svg"><path d="M12.5 0C5.607 0 0 5.608 0 12.5S5.607 25 12.5 25 25 19.392 25 12.5 19.393 0 12.5 0zm0 23.958c-6.318 0-11.458-5.14-11.458-11.458 0-6.318 5.14-11.458 11.458-11.458 6.318 0 11.458 5.14 11.458 11.458 0 6.318-5.14 11.458-11.458 11.458z"/><path d="M17.47 12.062l-7.292-4.687a.52.52 0 00-.803.437v9.375a.52.52 0 00.803.438l7.291-4.687a.522.522 0 000-.876zm-7.053 4.171V8.767l5.807 3.733-5.807 3.733z"/></svg><svg viewBox="0 0 512 512" id="icon-youtube" xmlns="http://www.w3.org/2000/svg"><path d="M260.4 449c-57.1-1.8-111.4-3.2-165.7-5.3-11.7-.5-23.6-2.3-35-5-21.4-5-36.2-17.9-43.8-39-6.1-17-8.3-34.5-9.9-52.3-3.5-41.8-3.5-83.6-1.8-125.4 1-23.6 1.6-47.4 7.9-70.3 3.8-13.7 8.4-27.1 19.5-37 11.7-10.5 25.4-16.8 41-17.5 42.8-2.1 85.5-4.7 128.3-5.1 57.6-.6 115.3.2 172.9 1.3 24.9.5 50 1.8 74.7 5 22.6 3 39.5 15.6 48.5 37.6 6.9 16.9 9.5 34.6 11 52.6 3.9 45.1 4 90.2 1.8 135.3-1.1 22.9-2.2 45.9-8.7 68.2-7.4 25.6-23.1 42.5-49.3 48.3-10.2 2.2-20.8 3-31.2 3.4-54.4 1.9-108.7 3.6-160.2 5.2zm-55.3-113.7c45.6-23.6 90.7-47 136.7-70.9-45.9-24-91-47.5-136.7-71.4v142.3z"/></svg></svg>